<svg xmlns="http://www.w3.org/2000/svg" viewBox="0 0 292.61 292.61"><defs><style>.cls-1{fill:#f9a65a;}.cls-2{fill:#ef3835;}.cls-3{fill:#f0543b;}.cls-4{fill:#f36c41;}.cls-5{fill:#f58049;}.cls-6{fill:#f79351;}.cls-7{fill:#fff;}</style></defs><title>Asset 1</title><g id="Layer_2" data-name="Layer 2"><g id="Layer_1-2" data-name="Layer 1"><rect class="cls-1" width="292.61" height="292.61"/><path class="cls-2" d="M114.83,205a35.75,35.75,0,0,1-17-3.82c-5-2.65-8.27-6.16-9.86-10.42-1.48-3.94-2.19-9.26-2.19-16.26v-8.74h20.19c-.59-.4-1.22-.82-1.9-1.26A105.28,105.28,0,0,1,92.39,156a22.13,22.13,0,0,1-5.33-8.13,33.92,33.92,0,0,1-2-12.6c0-7.29,1-12.59,3-16.17a20.24,20.24,0,0,1,9.68-8.56,36.17,36.17,0,0,1,15.11-2.9,39.34,39.34,0,0,1,16.39,3.14c4.81,2.21,8.09,5.13,9.75,8.69,1.55,3.34,2.31,8.6,2.31,16.07V142H119.15c10.26,6.14,16.64,11.16,19.49,15.34,3,4.41,4.47,11.08,4.47,20.37,0,6.77-.81,11.72-2.5,15.13-1.76,3.57-5.08,6.53-9.87,8.82A36.56,36.56,0,0,1,114.83,205Z"/><path class="cls-2" d="M189.78,203.13H144.26V109.48h44V133H173.05v10.62h14.24v22.68H173.05v13.27h16.73Z"/><path class="cls-3" d="M118.83,201a35.75,35.75,0,0,1-17-3.82c-5-2.65-8.27-6.16-9.86-10.42-1.48-3.94-2.19-9.26-2.19-16.26v-8.74h20.19c-.59-.4-1.22-.82-1.9-1.26A105.28,105.28,0,0,1,96.39,152a22.13,22.13,0,0,1-5.33-8.13,33.92,33.92,0,0,1-2-12.6c0-7.29,1-12.59,3-16.17a20.24,20.24,0,0,1,9.68-8.56,36.17,36.17,0,0,1,15.11-2.9,39.34,39.34,0,0,1,16.39,3.14c4.81,2.21,8.09,5.13,9.75,8.69,1.55,3.34,2.31,8.6,2.31,16.07V138H123.15c10.26,6.14,16.64,11.16,19.49,15.34,3,4.41,4.47,11.08,4.47,20.37,0,6.77-.81,11.72-2.5,15.13-1.76,3.57-5.08,6.53-9.87,8.82A36.56,36.56,0,0,1,118.83,201Z"/><polygon class="cls-3" points="193.78 199.13 148.26 199.13 148.26 105.48 192.27 105.48 192.27 129.02 177.05 129.02 177.05 139.64 191.29 139.64 191.29 162.32 177.05 162.32 177.05 175.59 193.78 175.59 193.78 199.13"/><path class="cls-4" d="M122.83,197a35.75,35.75,0,0,1-17-3.82c-5-2.65-8.27-6.16-9.86-10.42-1.48-3.94-2.19-9.26-2.19-16.26v-8.74h20.19c-.59-.4-1.22-.82-1.9-1.26A105.28,105.28,0,0,1,100.39,148a22.13,22.13,0,0,1-5.33-8.13,33.92,33.92,0,0,1-2-12.6c0-7.29,1-12.59,3-16.17a20.24,20.24,0,0,1,9.68-8.56,36.17,36.17,0,0,1,15.11-2.9,39.34,39.34,0,0,1,16.39,3.14c4.81,2.21,8.09,5.13,9.75,8.69,1.55,3.34,2.31,8.6,2.31,16.07V134H127.15c10.26,6.14,16.64,11.16,19.49,15.34,3,4.41,4.47,11.08,4.47,20.37,0,6.77-.81,11.72-2.5,15.13-1.76,3.57-5.08,6.53-9.87,8.82A36.56,36.56,0,0,1,122.83,197Z"/><polygon class="cls-4" points="197.78 195.13 152.26 195.13 152.26 101.48 196.27 101.48 196.27 125.02 181.05 125.02 181.05 135.64 195.29 135.64 195.29 158.32 181.05 158.32 181.05 171.59 197.78 171.59 197.78 195.13"/><path class="cls-5" d="M126.83,193a35.75,35.75,0,0,1-17-3.82c-5-2.65-8.27-6.16-9.86-10.42-1.48-3.94-2.19-9.26-2.19-16.26v-8.74h20.19c-.59-.4-1.22-.82-1.9-1.26A105.28,105.28,0,0,1,104.39,144a22.13,22.13,0,0,1-5.33-8.13,33.92,33.92,0,0,1-2-12.6c0-7.29,1-12.59,3-16.17a20.24,20.24,0,0,1,9.68-8.56,36.17,36.17,0,0,1,15.11-2.9,39.34,39.34,0,0,1,16.39,3.14c4.81,2.21,8.09,5.13,9.75,8.69,1.55,3.34,2.31,8.6,2.31,16.07V130H131.15c10.26,6.14,16.64,11.16,19.49,15.34,3,4.41,4.47,11.08,4.47,20.37,0,6.77-.81,11.72-2.5,15.13-1.76,3.57-5.08,6.53-9.87,8.82A36.56,36.56,0,0,1,126.83,193Z"/><polygon class="cls-5" points="201.78 191.13 156.26 191.13 156.26 97.48 200.27 97.48 200.27 121.02 185.05 121.02 185.05 131.64 199.29 131.64 199.29 154.32 185.05 154.32 185.05 167.59 201.78 167.59 201.78 191.13"/><path class="cls-6" d="M130.83,189a35.75,35.75,0,0,1-17-3.82c-5-2.65-8.27-6.16-9.86-10.42-1.48-3.94-2.19-9.26-2.19-16.26v-8.74h20.19c-.59-.4-1.22-.82-1.9-1.26A105.28,105.28,0,0,1,108.39,140a22.13,22.13,0,0,1-5.33-8.13,33.92,33.92,0,0,1-2-12.6c0-7.29,1-12.59,3-16.17a20.24,20.24,0,0,1,9.68-8.56,36.17,36.17,0,0,1,15.11-2.9,39.34,39.34,0,0,1,16.39,3.14c4.81,2.21,8.09,5.13,9.75,8.69,1.55,3.34,2.31,8.6,2.31,16.07V126H135.15c10.26,6.14,16.64,11.16,19.49,15.34,3,4.41,4.47,11.08,4.47,20.37,0,6.77-.81,11.72-2.5,15.13-1.76,3.57-5.08,6.53-9.87,8.82A36.56,36.56,0,0,1,130.83,189Z"/><polygon class="cls-6" points="205.78 187.13 160.26 187.13 160.26 93.48 204.27 93.48 204.27 117.02 189.05 117.02 189.05 127.64 203.29 127.64 203.29 150.32 189.05 150.32 189.05 163.59 205.78 163.59 205.78 187.13"/><path class="cls-1" d="M134.83,185a35.75,35.75,0,0,1-17-3.82c-5-2.65-8.27-6.16-9.86-10.42-1.48-3.94-2.19-9.26-2.19-16.26v-8.74h20.19c-.59-.4-1.22-.82-1.9-1.26A105.28,105.28,0,0,1,112.39,136a22.13,22.13,0,0,1-5.33-8.13,33.92,33.92,0,0,1-2-12.6c0-7.29,1-12.59,3-16.17a20.24,20.24,0,0,1,9.68-8.56,36.17,36.17,0,0,1,15.11-2.9,39.34,39.34,0,0,1,16.39,3.14c4.81,2.21,8.09,5.13,9.75,8.69,1.55,3.34,2.31,8.6,2.31,16.07V122H139.15c10.26,6.14,16.64,11.16,19.49,15.34,3,4.41,4.47,11.08,4.47,20.37,0,6.77-.81,11.72-2.5,15.13-1.76,3.57-5.08,6.53-9.87,8.82A36.56,36.56,0,0,1,134.83,185Z"/><path class="cls-1" d="M209.78,183.13H164.26V89.48h44V113H193.05v10.62h14.24v22.68H193.05v13.27h16.73Z"/><path class="cls-7" d="M158.22,119H137.05v-6.5q0-4.55-.81-5.79a3,3,0,0,0-2.71-1.25,3.44,3.44,0,0,0-3.11,1.68,9.7,9.7,0,0,0-1.06,5.1,14.49,14.49,0,0,0,1.19,6.61q1.13,2.22,6.44,5.35,15.22,9,19.17,14.83t4,18.68c0,6.24-.73,10.85-2.19,13.8s-4.28,5.45-8.47,7.45a33.57,33.57,0,0,1-14.62,3,32.68,32.68,0,0,1-15.62-3.46q-6.46-3.47-8.47-8.83t-2-15.21v-5.74H129.9V159.4q0,4.92.9,6.33a3.44,3.44,0,0,0,3.16,1.41,3.72,3.72,0,0,0,3.39-1.79,10.18,10.18,0,0,0,1.11-5.3q0-7.74-2.11-10.13t-10.67-8a103.58,103.58,0,0,1-11.26-8.17,19,19,0,0,1-4.57-7A31,31,0,0,1,108,115.27q0-10.06,2.57-14.72a17.39,17.39,0,0,1,8.31-7.29,33.19,33.19,0,0,1,13.86-2.62,36.2,36.2,0,0,1,15.14,2.87c4.16,1.91,6.93,4.32,8.28,7.23s2,7.84,2,14.8Z"/><path class="cls-7" d="M167.26,92.48h38V110H190.05v16.62h14.24v16.68H190.05v19.27h16.73v17.54H167.26Z"/></g></g></svg>