<svg xmlns="http://www.w3.org/2000/svg" viewBox="0 0 361.92 185.18"><defs><style>.cls-1{fill:#3e2c80;}.cls-2{fill:#4b3586;}.cls-3{fill:#573e8d;}.cls-4{fill:#644894;}.cls-5{fill:#71529c;}.cls-6{fill:#7e5da7;}.cls-7{fill:#fff;}</style></defs><title>Asset 1</title><g id="Layer_2" data-name="Layer 2"><g id="Layer_1-2" data-name="Layer 1"><path class="cls-1" d="M249.38,49.9h-9.75V46.28h10.86A26.56,26.56,0,0,0,249.38,49.9Zm-9.75,35.95V79.57h9.51a32.33,32.33,0,0,0-.8,6.28Zm101.89,6h-.3c0-.62,0-1.36,0-2.21V57.65h5.9V33.28h-5.9V22H306.27V33.28h-4.71v3.3c-.52-.42-1.06-.84-1.64-1.24-4.91-3.43-11.6-5.09-20.44-5.09-7.34,0-13.52,1.47-18.39,4.38a29.48,29.48,0,0,0-6.24,4.89V15.74h-51v27A26.62,26.62,0,0,0,195,34.63c-5-2.91-11.19-4.38-18.46-4.38a35.93,35.93,0,0,0-16.23,3.58,26.26,26.26,0,0,0-5,3.24V15.74H140.82c-5.52,0-9.62.39-12.53,1.21a18.88,18.88,0,0,0-8.16,4.44A14.57,14.57,0,0,0,115.88,29a28.42,28.42,0,0,0-.47,4.28h-4.64V36.5c-.49-.39-1-.79-1.53-1.16-4.92-3.43-11.61-5.09-20.45-5.09-7.33,0-13.52,1.47-18.38,4.38a28.11,28.11,0,0,0-7.32,6.11c-.28-5.7-1.1-9.9-2.54-13-2-4.33-5.87-7.83-11.47-10.39A42.56,42.56,0,0,0,31.24,13.9a39.71,39.71,0,0,0-16.56,3.21A23.77,23.77,0,0,0,3.38,27.16C1.11,31.28,0,37.13,0,45A36.88,36.88,0,0,0,2.29,58.94a25.52,25.52,0,0,0,6.19,9.38A53.42,53.42,0,0,0,13.08,72H.7V84.23c0,7.42.79,13.14,2.42,17.49C5,106.8,8.88,110.93,14.61,114a39.24,39.24,0,0,0,18.69,4.23,40,40,0,0,0,17.42-3.64,26.07,26.07,0,0,0,9.44-7.19,15,15,0,0,0,5.11,6,25,25,0,0,0,14.16,4.33,22.13,22.13,0,0,0,7.67-1.3h63V104.46a27.75,27.75,0,0,0,2.47,3.43,26.19,26.19,0,0,0,10.93,7.38,41.07,41.07,0,0,0,14.53,2.42,36.73,36.73,0,0,0,14.45-2.56A25.51,25.51,0,0,0,203,107c.31-.4.61-.81.89-1.21v10.6h52.52v-2.77a25,25,0,0,0,13.75,4.07,22.13,22.13,0,0,0,7.67-1.3h32.83v-6.65a18.61,18.61,0,0,0,1.38,1.44,17.89,17.89,0,0,0,8.8,4.47,67.48,67.48,0,0,0,11.91.74H348V91.8ZM49.44,55.27h8.42c-.16,1.79-.26,3.7-.26,5.79V62.2A54.15,54.15,0,0,0,49.44,55.27Z"/><path class="cls-2" d="M252.16,47.12h-9.75V43.5h10.86A25.23,25.23,0,0,0,252.16,47.12Zm-9.75,35.95V76.8h9.51a32.12,32.12,0,0,0-.8,6.27ZM344.3,89H344c0-.62,0-1.36,0-2.21V54.87h5.9V30.5H344V19.18H309.05V30.5h-4.71v3.3c-.52-.42-1.06-.84-1.64-1.24-4.91-3.43-11.6-5.09-20.45-5.09-7.33,0-13.51,1.47-18.38,4.38a29.48,29.48,0,0,0-6.24,4.89V13h-51V40a26.62,26.62,0,0,0-8.82-8.13c-5-2.91-11.19-4.38-18.47-4.38a35.91,35.91,0,0,0-16.22,3.58,26.66,26.66,0,0,0-5,3.24V13H143.6a49,49,0,0,0-12.53,1.21,18.88,18.88,0,0,0-8.16,4.44,14.57,14.57,0,0,0-4.25,7.61,28.6,28.6,0,0,0-.47,4.28h-4.64v3.22c-.49-.39-1-.79-1.53-1.16-4.92-3.43-11.61-5.09-20.45-5.09-7.33,0-13.52,1.47-18.38,4.38A28.33,28.33,0,0,0,65.86,38c-.27-5.7-1.09-9.9-2.53-13-2-4.33-5.87-7.82-11.47-10.39A42.56,42.56,0,0,0,34,11.12a39.71,39.71,0,0,0-16.56,3.21,23.77,23.77,0,0,0-11.3,10c-2.27,4.12-3.38,10-3.38,17.87A37.09,37.09,0,0,0,5.06,56.16a25.79,25.79,0,0,0,6.2,9.39,55.69,55.69,0,0,0,4.6,3.66H3.48V81.45c0,7.42.79,13.14,2.42,17.49,1.9,5.08,5.76,9.21,11.49,12.28a39.24,39.24,0,0,0,18.69,4.23,40,40,0,0,0,17.42-3.64,26.07,26.07,0,0,0,9.44-7.19,15,15,0,0,0,5.11,6,25,25,0,0,0,14.16,4.33,22.13,22.13,0,0,0,7.67-1.3h63V101.68a27.75,27.75,0,0,0,2.47,3.43,26.13,26.13,0,0,0,10.93,7.38,41.07,41.07,0,0,0,14.53,2.42,36.64,36.64,0,0,0,14.44-2.56,25.47,25.47,0,0,0,10.44-8.13c.31-.4.6-.81.89-1.21v10.6h52.52v-2.77a25,25,0,0,0,13.75,4.07,22.13,22.13,0,0,0,7.67-1.3h32.83V107a18.61,18.61,0,0,0,1.38,1.44,17.9,17.9,0,0,0,8.79,4.47,66.72,66.72,0,0,0,11.92.74H350.8V89ZM52.22,52.49h8.42c-.16,1.79-.26,3.7-.26,5.79v1.14A54.15,54.15,0,0,0,52.22,52.49Z"/><path class="cls-3" d="M254.94,44.34h-9.75V40.72h10.86A25.23,25.23,0,0,0,254.94,44.34Zm-9.75,36V74h9.51a32.12,32.12,0,0,0-.8,6.27Zm101.89,6h-.3c0-.62,0-1.35,0-2.21V52.09h5.9V27.72h-5.9V16.4H311.83V27.72h-4.71V31c-.52-.42-1.06-.84-1.64-1.24-4.92-3.43-11.6-5.09-20.45-5.09-7.33,0-13.52,1.47-18.38,4.38A29.81,29.81,0,0,0,260.4,34V10.18h-51v27a26.62,26.62,0,0,0-8.82-8.13c-5-2.91-11.19-4.38-18.47-4.38a35.88,35.88,0,0,0-16.22,3.58,26.34,26.34,0,0,0-5,3.24V10.18H146.38c-5.52,0-9.62.4-12.53,1.22a18.76,18.76,0,0,0-8.16,4.43,14.57,14.57,0,0,0-4.25,7.61,28.6,28.6,0,0,0-.47,4.28h-4.64v3.22c-.49-.39-1-.78-1.53-1.16-4.92-3.43-11.61-5.09-20.45-5.09C87,24.69,80.83,26.16,76,29.07a28.45,28.45,0,0,0-7.32,6.11c-.27-5.7-1.09-9.9-2.53-13-2-4.33-5.88-7.82-11.47-10.39A42.59,42.59,0,0,0,36.8,8.34a39.71,39.71,0,0,0-16.56,3.21A23.73,23.73,0,0,0,8.94,21.6c-2.27,4.12-3.38,10-3.38,17.87A37.09,37.09,0,0,0,7.84,53.38,25.79,25.79,0,0,0,14,62.77a55.69,55.69,0,0,0,4.6,3.66H6.26V78.67c0,7.42.79,13.14,2.42,17.49,1.9,5.08,5.76,9.21,11.49,12.28a39.24,39.24,0,0,0,18.69,4.23A40,40,0,0,0,56.28,109a26.07,26.07,0,0,0,9.44-7.19,15,15,0,0,0,5.11,6A24.88,24.88,0,0,0,85,112.13a21.9,21.9,0,0,0,7.67-1.3h63V98.9a27.75,27.75,0,0,0,2.47,3.43,26,26,0,0,0,10.93,7.38,41.07,41.07,0,0,0,14.53,2.42,36.83,36.83,0,0,0,14.44-2.55,25.64,25.64,0,0,0,10.44-8.14c.31-.4.6-.81.89-1.21v10.6h52.52v-2.77a25,25,0,0,0,13.75,4.07,21.9,21.9,0,0,0,7.67-1.3h32.83v-6.65a18.61,18.61,0,0,0,1.38,1.44,17.9,17.9,0,0,0,8.79,4.47,66.66,66.66,0,0,0,11.91.74h15.33V86.25ZM55,49.71h8.42c-.17,1.79-.26,3.7-.26,5.79v1.14A54.66,54.66,0,0,0,55,49.71Z"/><path class="cls-4" d="M257.72,41.56H248V37.94h10.86A25.23,25.23,0,0,0,257.72,41.56Zm-9.75,36V71.24h9.51a32.12,32.12,0,0,0-.8,6.27Zm101.89,6h-.3c0-.63,0-1.36,0-2.22V49.31h5.9V24.94h-5.9V13.63H314.61V24.94H309.9v3.31c-.52-.43-1.07-.85-1.64-1.25-4.92-3.43-11.6-5.09-20.45-5.09-7.33,0-13.52,1.47-18.38,4.39a29.78,29.78,0,0,0-6.25,4.88V7.4h-51v27a26.54,26.54,0,0,0-8.82-8.14c-5-2.91-11.19-4.38-18.47-4.38a35.88,35.88,0,0,0-16.22,3.58,26,26,0,0,0-5,3.24V7.4H149.16c-5.52,0-9.62.4-12.53,1.22a18.76,18.76,0,0,0-8.16,4.43,14.57,14.57,0,0,0-4.25,7.61,28.6,28.6,0,0,0-.47,4.28h-4.64v3.22c-.49-.39-1-.78-1.53-1.16-4.92-3.43-11.61-5.09-20.45-5.09-7.33,0-13.52,1.47-18.39,4.39a28.22,28.22,0,0,0-7.32,6.1c-.27-5.7-1.09-9.9-2.53-13C66.87,15.08,63,11.59,57.42,9A42.59,42.59,0,0,0,39.58,5.56,39.71,39.71,0,0,0,23,8.77a23.73,23.73,0,0,0-11.3,10.05c-2.28,4.12-3.38,10-3.38,17.87A37.09,37.09,0,0,0,10.62,50.6,25.79,25.79,0,0,0,16.82,60a55.69,55.69,0,0,0,4.6,3.66H9V75.89c0,7.42.79,13.14,2.42,17.49,1.89,5.08,5.76,9.21,11.49,12.28a39.21,39.21,0,0,0,18.69,4.23,40,40,0,0,0,17.42-3.64,26.07,26.07,0,0,0,9.44-7.19,15,15,0,0,0,5.11,6,24.87,24.87,0,0,0,14.15,4.33,21.92,21.92,0,0,0,7.68-1.3h63V96.12A27.75,27.75,0,0,0,161,99.55a26,26,0,0,0,10.93,7.38,41.07,41.07,0,0,0,14.53,2.42,36.83,36.83,0,0,0,14.44-2.55,25.64,25.64,0,0,0,10.44-8.14c.31-.4.6-.81.89-1.21v10.6H264.7v-2.77a25,25,0,0,0,13.75,4.07,21.9,21.9,0,0,0,7.67-1.3H319V101.4a17,17,0,0,0,1.38,1.44,17.9,17.9,0,0,0,8.79,4.47,66.66,66.66,0,0,0,11.91.74h15.33V83.47ZM57.78,46.93H66.2c-.17,1.79-.26,3.71-.26,5.79v1.14A54.66,54.66,0,0,0,57.78,46.93Z"/><path class="cls-5" d="M260.5,38.78h-9.75V35.16h10.86A25.23,25.23,0,0,0,260.5,38.78Zm-9.75,36V68.46h9.51a32.12,32.12,0,0,0-.8,6.27Zm101.89,6h-.3c0-.63,0-1.36,0-2.22V46.53h5.9V22.16h-5.9V10.85H317.39V22.16h-4.71v3.31c-.53-.43-1.07-.85-1.64-1.25-4.92-3.42-11.61-5.09-20.45-5.09-7.33,0-13.52,1.48-18.38,4.39A29.78,29.78,0,0,0,266,28.4V4.62H215v27a26.54,26.54,0,0,0-8.82-8.14c-5-2.91-11.19-4.38-18.47-4.38a35.88,35.88,0,0,0-16.22,3.58,26,26,0,0,0-5,3.24V4.62H151.94c-5.52,0-9.62.4-12.53,1.22a18.76,18.76,0,0,0-8.16,4.43A14.56,14.56,0,0,0,127,17.89a29.2,29.2,0,0,0-.48,4.27h-4.63v3.22c-.49-.39-1-.78-1.53-1.16-4.92-3.42-11.61-5.09-20.45-5.09-7.33,0-13.52,1.48-18.39,4.39a28.22,28.22,0,0,0-7.32,6.1c-.27-5.7-1.09-9.9-2.53-13-2-4.33-5.88-7.82-11.47-10.39A42.59,42.59,0,0,0,42.36,2.78,39.71,39.71,0,0,0,25.8,6,23.73,23.73,0,0,0,14.5,16c-2.28,4.12-3.38,10-3.38,17.87A37.05,37.05,0,0,0,13.4,47.82a25.66,25.66,0,0,0,6.2,9.39,53.64,53.64,0,0,0,4.6,3.66H11.82V73.11c0,7.42.79,13.14,2.42,17.49,1.89,5.08,5.76,9.21,11.49,12.28a39.21,39.21,0,0,0,18.69,4.23,40,40,0,0,0,17.42-3.64,26.15,26.15,0,0,0,9.44-7.19,15,15,0,0,0,5.11,6,24.94,24.94,0,0,0,14.15,4.32,21.82,21.82,0,0,0,7.67-1.3h63.05V93.34a27.75,27.75,0,0,0,2.47,3.43,26,26,0,0,0,10.93,7.38,41.07,41.07,0,0,0,14.53,2.42A36.83,36.83,0,0,0,203.63,104a25.64,25.64,0,0,0,10.44-8.14c.31-.4.6-.81.89-1.21v10.6h52.52V102.5a25,25,0,0,0,13.75,4.07,21.9,21.9,0,0,0,7.67-1.3h32.83V98.62a17,17,0,0,0,1.38,1.44,17.9,17.9,0,0,0,8.79,4.47,66.59,66.59,0,0,0,11.91.74h15.33V80.69ZM60.56,44.15H69c-.17,1.79-.26,3.71-.26,5.79v1.14A54.66,54.66,0,0,0,60.56,44.15Z"/><path class="cls-6" d="M263.28,36h-9.75V32.38h10.86A25.23,25.23,0,0,0,263.28,36Zm-9.75,36V65.68H263a32.12,32.12,0,0,0-.8,6.27Zm101.89,6h-.3c0-.63,0-1.36,0-2.22V43.75H361V19.38h-5.9V8.07H320.17V19.38h-4.71v3.31c-.53-.43-1.07-.85-1.64-1.25-4.92-3.42-11.61-5.09-20.45-5.09-7.33,0-13.52,1.48-18.39,4.39a29.67,29.67,0,0,0-6.24,4.89V1.84h-51v27a26.48,26.48,0,0,0-8.83-8.14c-5-2.91-11.19-4.38-18.46-4.38a36,36,0,0,0-16.22,3.58,26,26,0,0,0-5,3.24V1.84H154.72a48.65,48.65,0,0,0-12.54,1.22A18.69,18.69,0,0,0,134,7.5a14.5,14.5,0,0,0-4.25,7.61,29.2,29.2,0,0,0-.48,4.27h-4.63V22.6c-.5-.39-1-.78-1.53-1.16-4.92-3.42-11.61-5.09-20.45-5.09-7.33,0-13.52,1.48-18.39,4.39A28.22,28.22,0,0,0,77,26.84c-.27-5.7-1.09-9.9-2.53-13C72.43,9.52,68.57,6,63,3.46A42.59,42.59,0,0,0,45.14,0,39.79,39.79,0,0,0,28.57,3.21,23.75,23.75,0,0,0,17.28,13.26c-2.28,4.13-3.38,10-3.38,17.87A36.82,36.82,0,0,0,16.18,45a25.66,25.66,0,0,0,6.2,9.39A53.64,53.64,0,0,0,27,58.09H14.6V70.33c0,7.42.79,13.15,2.41,17.49,1.9,5.08,5.77,9.21,11.5,12.28a39.21,39.21,0,0,0,18.69,4.23,40,40,0,0,0,17.42-3.64,26,26,0,0,0,9.44-7.19,14.93,14.93,0,0,0,5.11,6,24.94,24.94,0,0,0,14.15,4.32,21.82,21.82,0,0,0,7.67-1.3h63V90.56A27.84,27.84,0,0,0,166.51,94a26,26,0,0,0,10.93,7.38A41,41,0,0,0,192,103.79a36.9,36.9,0,0,0,14.44-2.55,25.77,25.77,0,0,0,10.44-8.13c.31-.41.6-.82.89-1.22v10.6h52.52V99.72A25,25,0,0,0,284,103.79a21.9,21.9,0,0,0,7.67-1.3h32.83V95.84a17,17,0,0,0,1.38,1.44,17.82,17.82,0,0,0,8.79,4.47,66.59,66.59,0,0,0,11.91.74h15.33V77.91ZM63.34,41.37h8.42c-.17,1.79-.26,3.71-.26,5.79V48.3A55.26,55.26,0,0,0,63.34,41.37Z"/><path class="cls-7" d="M70.58,34.87H49.42v-6.5q0-4.55-.82-5.79a3,3,0,0,0-2.7-1.25A3.45,3.45,0,0,0,42.78,23a9.81,9.81,0,0,0-1.05,5.1,14.48,14.48,0,0,0,1.18,6.61c.76,1.48,2.91,3.26,6.45,5.36q15.21,9,19.17,14.82t4,18.68q0,9.36-2.19,13.81t-8.48,7.44a33.53,33.53,0,0,1-14.61,3,32.68,32.68,0,0,1-15.62-3.46q-6.48-3.47-8.48-8.83t-2-15.21V64.59H42.27V75.26q0,4.92.89,6.33A3.46,3.46,0,0,0,46.33,83a3.71,3.71,0,0,0,3.38-1.79,10.18,10.18,0,0,0,1.11-5.3q0-7.74-2.11-10.13t-10.66-8a103.58,103.58,0,0,1-11.26-8.17,19,19,0,0,1-4.58-7A30.94,30.94,0,0,1,20.4,31.13q0-10.06,2.57-14.72a17.23,17.23,0,0,1,8.31-7.28A33.12,33.12,0,0,1,45.14,6.5,36.15,36.15,0,0,1,60.27,9.37q6.25,2.87,8.28,7.23t2,14.8Z"/><path class="cls-7" d="M98.52,52H78V47.16q0-8.34,1.92-12.86t7.72-8q5.79-3.45,15-3.46,11.1,0,16.73,3.93t6.77,9.63q1.13,5.72,1.13,23.53V96H106.05v-6.4a13.32,13.32,0,0,1-12.73,7.7,18.48,18.48,0,0,1-10.53-3.22Q78,90.85,78,80v-5.9q0-8.07,2.55-11t12.61-6.83q10.77-4.22,11.53-5.68t.76-6q0-5.62-.84-7.33a2.88,2.88,0,0,0-2.79-1.71q-2.22,0-2.76,1.44c-.36,1-.54,3.44-.54,7.44Zm6.93,9.85q-5.25,3.84-6.09,6.44a25.65,25.65,0,0,0-.84,7.48q0,5.56.73,7.2a2.86,2.86,0,0,0,2.9,1.62c1.37,0,2.26-.42,2.68-1.27s.62-3.08.62-6.69Z"/><path class="cls-7" d="M162.73,8.34v11.1q-6.76,0-8,.62c-.82.42-1.22,1.6-1.22,3.55v2.27h9.2V37.25h-5.2V96H135.66V37.25h-4.49V25.88h4.49a57.34,57.34,0,0,1,.49-9.47,8.08,8.08,0,0,1,2.41-4.25A12.31,12.31,0,0,1,144,9.31a43.73,43.73,0,0,1,10.77-1Z"/><path class="cls-7" d="M216.44,61.34H188.12V76.88q0,4.88.71,6.28a2.73,2.73,0,0,0,2.7,1.41,3.28,3.28,0,0,0,3.33-1.87q.84-1.86.84-7.23V66h20.74v5.31a47.43,47.43,0,0,1-.84,10.23,20.84,20.84,0,0,1-3.93,7.63,19,19,0,0,1-7.82,6.09,30.17,30.17,0,0,1-11.88,2,34.68,34.68,0,0,1-12.24-2,19.44,19.44,0,0,1-8.25-5.5,19.82,19.82,0,0,1-4.09-7.68,49.54,49.54,0,0,1-1.14-12.21V49q0-9.42,2.55-14.87a17.45,17.45,0,0,1,8.33-8.33,29.4,29.4,0,0,1,13.32-2.9q9.21,0,15.19,3.49A19.24,19.24,0,0,1,214,35.6q2.41,5.76,2.41,16.21ZM194.51,49.65V44.4q0-5.58-.59-7.2a2.35,2.35,0,0,0-2.44-1.63c-1.52,0-2.45.46-2.82,1.38s-.54,3.41-.54,7.45v5.25Z"/><path class="cls-7" d="M224.24,8.34h38V25.88H247V42.5h14.24V59.18H247V78.45h16.73V96H224.24Z"/><path class="cls-7" d="M289.2,52H268.68V47.16q0-8.34,1.93-12.86t7.71-8q5.79-3.45,15.05-3.46,11.1,0,16.73,3.93t6.77,9.63Q318,42.13,318,59.94V96H296.73v-6.4A13.32,13.32,0,0,1,284,97.29a18.44,18.44,0,0,1-10.53-3.22q-4.8-3.22-4.8-14.1v-5.9q0-8.07,2.55-11t12.61-6.83q10.79-4.22,11.54-5.68t.75-6q0-5.62-.84-7.33a2.87,2.87,0,0,0-2.78-1.71q-2.22,0-2.76,1.44c-.37,1-.55,3.44-.55,7.44Zm6.93,9.85q-5.25,3.84-6.09,6.44a25.65,25.65,0,0,0-.84,7.48c0,3.71.25,6.11.73,7.2a2.87,2.87,0,0,0,2.9,1.62c1.37,0,2.27-.42,2.68-1.27s.62-3.08.62-6.69Z"/><path class="cls-7" d="M348.6,14.57V25.88h5.9V37.25h-5.9V75.69c0,4.73.24,7.36.73,7.91s2.51.81,6.09.81V96h-8.83a62.56,62.56,0,0,1-10.66-.62,11.29,11.29,0,0,1-5.63-2.87,9.53,9.53,0,0,1-3-5.14q-.58-2.89-.59-13.62V37.25H322V25.88h4.71V14.57Z"/><path class="cls-7" d="M29.37,139.18h8.29c5.53,0,9.25.21,11.14.64a6.37,6.37,0,0,1,4.33,3.27q1.48,2.63.67,8.39-.73,5.25-2.3,7.07c-1,1.2-2.86,1.93-5.45,2.17q3.35.85,4.35,2.31a5.85,5.85,0,0,1,1.11,2.65,42.4,42.4,0,0,1-.64,6.67L49.2,184.23H38.32l2.1-15c.34-2.41.36-3.91.06-4.48s-1.26-.86-2.87-.86l-2.86,20.31H23ZM40,146.89l-1.4,10a5.62,5.62,0,0,0,2.84-.54c.58-.36,1-1.53,1.29-3.52l.35-2.48c.2-1.42.07-2.36-.37-2.81A4,4,0,0,0,40,146.89Z"/><path class="cls-7" d="M60.07,139.18H79.6l-1.27,9H70.51l-1.2,8.55h7.32l-1.2,8.57H68.11l-1.39,9.9h8.6l-1.27,9H53.73Z"/><path class="cls-7" d="M106.65,152.81H95.77l.47-3.34a6.23,6.23,0,0,0,0-3,1.3,1.3,0,0,0-1.3-.64,2.06,2.06,0,0,0-1.72.86,5.6,5.6,0,0,0-.91,2.62,7.06,7.06,0,0,0,.13,3.39c.28.77,1.26,1.68,2.93,2.76q7.17,4.63,8.78,7.62t.68,9.6a18.6,18.6,0,0,1-2.12,7.1,10.83,10.83,0,0,1-4.9,3.82,18.66,18.66,0,0,1-7.73,1.55,15.4,15.4,0,0,1-7.77-1.78,7.18,7.18,0,0,1-3.72-4.54,22.42,22.42,0,0,1,.07-7.82l.41-2.95H90l-.77,5.48a7.2,7.2,0,0,0,0,3.26,1.54,1.54,0,0,0,1.53.72,2.22,2.22,0,0,0,1.87-.92,5.91,5.91,0,0,0,1-2.72c.38-2.66.26-4.39-.35-5.21a28.37,28.37,0,0,0-4.91-4.09,45.12,45.12,0,0,1-5.2-4.2,8.19,8.19,0,0,1-1.84-3.62,15.15,15.15,0,0,1-.1-5.9c.48-3.45,1.28-6,2.38-7.57a11,11,0,0,1,4.8-3.74,18.37,18.37,0,0,1,7.31-1.35,17.09,17.09,0,0,1,7.58,1.48,6.67,6.67,0,0,1,3.73,3.71q.73,2.24,0,7.61Z"/><path class="cls-7" d="M136.82,139.18l-1.27,9h-7l-5.06,36H111.81l5.07-36H110l1.26-9Z"/><path class="cls-7" d="M157.46,139.18l.37,45h-12l.51-8.1h-4.19l-1.84,8.1H128.22l12.3-45Zm-10.28,29q.18-7.67.87-18.93-3.6,12.94-4.91,18.93Z"/><path class="cls-7" d="M192.78,139.18l-4.23,30.11a54.19,54.19,0,0,1-1.35,7.19,11.51,11.51,0,0,1-2.57,4.26,12.46,12.46,0,0,1-4.79,3.31,17.55,17.55,0,0,1-6.49,1.13,16.49,16.49,0,0,1-6.94-1.34,8.79,8.79,0,0,1-4.13-3.48,8.49,8.49,0,0,1-1.17-4.52c0-1.59.41-4.92,1.12-10L166,139.18H177.7L173,173a12.89,12.89,0,0,0-.21,3.77,1.06,1.06,0,0,0,1.18.82,1.6,1.6,0,0,0,1.56-.9,18.65,18.65,0,0,0,.92-4.27l4.66-33.2Z"/><path class="cls-7" d="M197.32,139.18h8.29q8.29,0,11.14.64a6.35,6.35,0,0,1,4.32,3.27q1.49,2.63.68,8.39c-.5,3.5-1.26,5.86-2.31,7.07s-2.85,1.93-5.45,2.17q3.36.85,4.35,2.31a6,6,0,0,1,1.12,2.65,43,43,0,0,1-.65,6.67l-1.67,11.88H206.26l2.11-15c.33-2.41.35-3.91,0-4.48s-1.25-.86-2.87-.86l-2.85,20.31H191ZM208,146.89l-1.41,10a5.64,5.64,0,0,0,2.85-.54c.57-.36,1-1.53,1.28-3.52l.35-2.48c.2-1.42.08-2.36-.37-2.81A4,4,0,0,0,208,146.89Z"/><path class="cls-7" d="M248.26,139.18l.37,45h-12l.51-8.1H233l-1.85,8.1H219l12.31-45Zm-10.28,29q.2-7.67.88-18.93-3.62,12.94-4.91,18.93Z"/><path class="cls-7" d="M283.11,139.18l-6.33,45H266.51l-3.22-20.48-2.88,20.48h-9.79l6.33-45h9.8l3.71,20.28,2.85-20.28Z"/><path class="cls-7" d="M311.41,139.18l-1.27,9h-6.95l-5.07,36H286.41l5.06-36h-6.93l1.27-9Z"/><path class="cls-7" d="M337,152.81H326.11l.47-3.34a6.23,6.23,0,0,0,0-3,1.31,1.31,0,0,0-1.3-.64,2,2,0,0,0-1.72.86,5.49,5.49,0,0,0-.91,2.62,6.93,6.93,0,0,0,.13,3.39c.28.77,1.25,1.68,2.92,2.76q7.17,4.63,8.78,7.62t.69,9.6a18.4,18.4,0,0,1-2.13,7.1,10.74,10.74,0,0,1-4.89,3.82,18.69,18.69,0,0,1-7.73,1.55,15.42,15.42,0,0,1-7.78-1.78,7.18,7.18,0,0,1-3.72-4.54A22.93,22.93,0,0,1,309,171l.42-2.95h10.88l-.77,5.48a6.91,6.91,0,0,0,0,3.26,1.54,1.54,0,0,0,1.53.72,2.2,2.2,0,0,0,1.86-.92,5.8,5.8,0,0,0,1-2.72c.37-2.66.25-4.39-.36-5.21a28.16,28.16,0,0,0-4.9-4.09,43.34,43.34,0,0,1-5.2-4.2,8.19,8.19,0,0,1-1.84-3.62,15.32,15.32,0,0,1-.11-5.9c.49-3.45,1.28-6,2.39-7.57a10.85,10.85,0,0,1,4.8-3.74,18.37,18.37,0,0,1,7.31-1.35,17,17,0,0,1,7.57,1.48,6.66,6.66,0,0,1,3.74,3.71q.72,2.24,0,7.61Z"/></g></g></svg>